<svg width="16" height="18" viewBox="0 0 16 18" fill="none" xmlns="http://www.w3.org/2000/svg">
<path d="M2.62006 18C2.20082 18 1.83974 17.8485 1.53684 17.5456C1.23393 17.2427 1.08248 16.8816 1.08248 16.4624V1.95785H0V0.748296H4.55945V0H11.4314V0.748296H15.9909V1.95785H14.9084V16.4624C14.9084 16.8804 14.7567 17.2412 14.4532 17.5447C14.1497 17.8482 13.7889 18 13.3708 18H2.62006ZM13.6989 1.95785H2.29201V16.4624C2.29201 16.5581 2.32447 16.6367 2.38939 16.6982C2.45433 16.7597 2.53122 16.7904 2.62006 16.7904H13.3708C13.4528 16.7904 13.528 16.7563 13.5964 16.6879C13.6647 16.6196 13.6989 16.5444 13.6989 16.4624V1.95785ZM5.36312 14.5394H6.57265V4.18222H5.36312V14.5394ZM9.41824 14.5394H10.6278V4.18222H9.41824V14.5394Z" fill="white"/>
</svg>
