<svg width="20" height="20" viewBox="0 0 20 20" fill="none" xmlns="http://www.w3.org/2000/svg">
<path d="M3.99235 16.1373H4.83692L14.05 6.93214L13.1975 6.07957L3.99235 15.2927V16.1373ZM16.0548 6.25266L13.877 4.07482L14.752 3.19982C14.9347 3.01713 15.1582 2.92578 15.4226 2.92578C15.687 2.92578 15.9106 3.01713 16.0933 3.19982L16.9298 4.03634C17.1125 4.21904 17.2025 4.44259 17.1998 4.70701C17.1972 4.97143 17.1045 5.19765 16.9218 5.38568L16.0548 6.25266ZM15.3881 6.9113L5.21671 17.0828H3.04688V14.9129L13.2183 4.74147L15.3881 6.9113ZM13.6238 6.49784L13.1975 6.07957L14.05 6.93214L13.6238 6.49784Z" fill="white"/>
</svg>
