<svg width="110" height="109" viewBox="0 0 110 109" fill="none" xmlns="http://www.w3.org/2000/svg">
<rect x="0.5" width="109" height="109" rx="54.5" fill="#BC172F" fill-opacity="0.05"/>
<rect x="11.4004" y="10.8999" width="87.2" height="87.2" rx="43.6" fill="#BC172F" fill-opacity="0.1"/>
<path d="M55.0005 53.202L68.9307 44.2531C68.3707 43.8331 67.6906 43.6038 66.9905 43.5991H43.0105C42.3104 43.6038 41.6304 43.8331 41.0703 44.2531L55.0005 53.202Z" fill="#BC172F"/>
<path d="M55.5888 55.4147L55.4035 55.5019H55.3163C55.216 55.5467 55.1094 55.5761 55.0002 55.5891C54.9098 55.6005 54.8182 55.6005 54.7277 55.5891H54.6405L54.4552 55.5019L39.8492 46.0625C39.7795 46.3258 39.7428 46.5967 39.7402 46.8691V62.1291C39.7402 62.9964 40.0848 63.8281 40.698 64.4413C41.3112 65.0546 42.143 65.3991 43.0102 65.3991H66.9902C67.8575 65.3991 68.6892 65.0546 69.3025 64.4413C69.9157 63.8281 70.2602 62.9964 70.2602 62.1291V46.8691C70.2576 46.5967 70.221 46.3258 70.1512 46.0625L55.5888 55.4147Z" fill="#BC172F"/>
</svg>
