<svg width="34" height="34" viewBox="0 0 34 34" fill="none" xmlns="http://www.w3.org/2000/svg">
<path d="M2.88465 33.9999C2.09745 33.9999 1.41988 33.7159 0.851949 33.148C0.283983 32.58 0 31.9025 0 31.1153V2.88465C0 2.09745 0.283983 1.41988 0.851949 0.851949C1.41988 0.283983 2.09745 0 2.88465 0H31.1153C31.9025 0 32.58 0.283983 33.148 0.851949C33.7159 1.41988 33.9999 2.09745 33.9999 2.88465V31.1153C33.9999 31.9025 33.7159 32.58 33.148 33.148C32.58 33.7159 31.9025 33.9999 31.1153 33.9999H2.88465ZM6.35775 26.6115H27.846L21.3615 17.9846L15.3192 25.6884L11.2077 20.3193L6.35775 26.6115Z" fill="white"/>
</svg>
