<svg width="21" height="18" viewBox="0 0 21 18" fill="none" xmlns="http://www.w3.org/2000/svg">
<path d="M6.81923 17.3359C14.5024 17.3359 18.7053 10.9697 18.7053 5.4587C18.7053 5.28055 18.7053 5.09986 18.6977 4.92172C19.5159 4.32937 20.2222 3.59601 20.7832 2.75599C20.0189 3.093 19.2089 3.31512 18.3795 3.41512C19.2531 2.89295 19.9074 2.07136 20.2208 1.10306C19.4 1.5893 18.5017 1.93063 17.5652 2.11212C16.9355 1.44156 16.1024 0.99734 15.1947 0.848258C14.287 0.699176 13.3555 0.853557 12.5445 1.28749C11.7334 1.72142 11.0881 2.41068 10.7084 3.24851C10.3288 4.08634 10.236 5.02598 10.4445 5.92188C8.78358 5.83859 7.15874 5.40712 5.67534 4.65545C4.19193 3.90377 2.8831 2.84868 1.83372 1.5586C1.30099 2.4787 1.13841 3.56706 1.379 4.60267C1.61958 5.63828 2.2453 6.54351 3.12908 7.13453C2.46682 7.11203 1.81911 6.93419 1.2382 6.61537V6.67263C1.23935 7.63649 1.57325 8.5704 2.18348 9.3165C2.79371 10.0626 3.64284 10.5751 4.58733 10.7674C4.22883 10.8662 3.8585 10.9154 3.48665 10.9137C3.2245 10.9145 2.96288 10.8903 2.70535 10.8412C2.9723 11.6709 3.49208 12.3964 4.1919 12.9159C4.89172 13.4355 5.73653 13.7232 6.608 13.7386C5.12756 14.9014 3.29883 15.532 1.41635 15.529C1.08464 15.5304 0.753171 15.5112 0.423828 15.4717C2.33445 16.6898 4.55335 17.3366 6.81923 17.3359Z" fill="white"/>
</svg>
