<svg width="19" height="15" viewBox="0 0 19 15" fill="none" xmlns="http://www.w3.org/2000/svg">
<path d="M15.8785 1.77282C14.7503 1.24687 13.5287 0.86513 12.2563 0.64457C12.2451 0.644213 12.234 0.646307 12.2238 0.650704C12.2135 0.655101 12.2043 0.661695 12.1969 0.67002C12.0442 0.949961 11.866 1.31473 11.7473 1.59468C10.3976 1.39108 9.02506 1.39108 7.6754 1.59468C7.55664 1.30625 7.3785 0.949961 7.21732 0.67002C7.20884 0.653054 7.18338 0.64457 7.15794 0.64457C5.88547 0.86513 4.67239 1.24687 3.53566 1.77282C3.52718 1.77282 3.51869 1.7813 3.51021 1.78979C1.20281 5.2424 0.56658 8.6017 0.880454 11.9271C0.880454 11.944 0.888937 11.961 0.905904 11.9695C2.43286 13.0893 3.90043 13.7679 5.35104 14.2175C5.37649 14.226 5.40194 14.2175 5.41042 14.2005C5.74974 13.734 6.05514 13.2419 6.31811 12.7245C6.33508 12.6905 6.31811 12.6566 6.28418 12.6481C5.80064 12.4615 5.34256 12.2409 4.89295 11.9865C4.85902 11.9695 4.85902 11.9186 4.88447 11.8931C4.97778 11.8253 5.0711 11.7489 5.16441 11.6811C5.18138 11.6641 5.20683 11.6641 5.22379 11.6726C8.14197 13.0044 11.2892 13.0044 14.1734 11.6726C14.1904 11.6641 14.2159 11.6641 14.2328 11.6811C14.3261 11.7574 14.4195 11.8253 14.5128 11.9016C14.5467 11.9271 14.5467 11.978 14.5043 11.9949C14.0632 12.2579 13.5966 12.47 13.1131 12.6566C13.0791 12.6651 13.0706 12.7075 13.0791 12.733C13.3506 13.2504 13.656 13.7425 13.9868 14.209C14.0123 14.2175 14.0377 14.226 14.0632 14.2175C15.5223 13.7679 16.9898 13.0893 18.5168 11.9695C18.5337 11.961 18.5422 11.944 18.5422 11.9271C18.9155 8.08423 17.923 4.75038 15.9125 1.78979C15.904 1.7813 15.8955 1.77282 15.8785 1.77282ZM6.75923 9.89961C5.88547 9.89961 5.15593 9.09372 5.15593 8.1012C5.15593 7.10868 5.86851 6.30279 6.75923 6.30279C7.65844 6.30279 8.37102 7.11716 8.36253 8.1012C8.36253 9.09372 7.64996 9.89961 6.75923 9.89961ZM12.6719 9.89961C11.7982 9.89961 11.0686 9.09372 11.0686 8.1012C11.0686 7.10868 11.7812 6.30279 12.6719 6.30279C13.5711 6.30279 14.2837 7.11716 14.2752 8.1012C14.2752 9.09372 13.5711 9.89961 12.6719 9.89961Z" fill="white"/>
</svg>
