<svg width="17" height="16" viewBox="0 0 17 16" fill="none" xmlns="http://www.w3.org/2000/svg">
<path fill-rule="evenodd" clip-rule="evenodd" d="M4.11694 0.600602C7.0656 0.273758 10.0414 0.273758 12.99 0.600602C14.6009 0.780439 15.8996 2.04863 16.0888 3.66546C16.4385 6.65538 16.4385 9.67586 16.0888 12.6658C15.8996 14.2826 14.6009 15.5508 12.9909 15.7315C10.0419 16.0584 7.06588 16.0584 4.11694 15.7315C2.50605 15.5508 1.20732 14.2826 1.01815 12.6666C0.668428 9.67643 0.668428 6.65566 1.01815 3.66546C1.20732 2.04863 2.50605 0.780439 4.11694 0.600602ZM12.7949 3.0759C12.5699 3.0759 12.3542 3.16527 12.1951 3.32436C12.036 3.48344 11.9466 3.69921 11.9466 3.92419C11.9466 4.14917 12.036 4.36493 12.1951 4.52402C12.3542 4.6831 12.5699 4.77247 12.7949 4.77247C13.0199 4.77247 13.2357 4.6831 13.3947 4.52402C13.5538 4.36493 13.6432 4.14917 13.6432 3.92419C13.6432 3.69921 13.5538 3.48344 13.3947 3.32436C13.2357 3.16527 13.0199 3.0759 12.7949 3.0759ZM4.52412 8.16562C4.52412 7.09697 4.94864 6.07208 5.70429 5.31643C6.45994 4.56078 7.48483 4.13626 8.55348 4.13626C9.62213 4.13626 10.647 4.56078 11.4027 5.31643C12.1583 6.07208 12.5828 7.09697 12.5828 8.16562C12.5828 9.23427 12.1583 10.2592 11.4027 11.0148C10.647 11.7705 9.62213 12.195 8.55348 12.195C7.48483 12.195 6.45994 11.7705 5.70429 11.0148C4.94864 10.2592 4.52412 9.23427 4.52412 8.16562Z" fill="white"/>
</svg>
