<svg width="104" height="35" viewBox="0 0 104 35" fill="none" xmlns="http://www.w3.org/2000/svg"><path d="M0.0375134 13.4648C0.0375134 10.9702 0.016881 9.44712 0 8.3311H3.57503C3.62942 8.8394 3.68382 10.3943 3.68382 12.0824C4.64228 9.60093 6.84995 7.95596 9.99357 7.88281V11.4766C6.13156 11.5516 3.68382 13.3804 3.68382 18.2384V27.2416H0.0375134V13.4648Z" fill="#BC172F"/><path d="M14.379 18.4783C14.3977 22.0421 16.189 24.6887 19.2801 24.6887C22.1142 24.6887 23.0146 23.2763 23.5941 21.9389H27.2592C26.5296 24.3398 24.4945 27.6822 19.1676 27.6822C13.1729 27.6822 10.6914 22.8843 10.6914 18.0075C10.6914 12.3167 13.5687 7.87891 19.3795 7.87891C25.5542 7.87891 27.5931 12.7331 27.5931 16.9009C27.6034 17.4254 27.5852 17.9501 27.5387 18.4727L14.379 18.4783ZM23.9055 16.0006C23.8699 13.067 22.4369 10.6924 19.3382 10.6924C16.1721 10.6924 14.7972 12.8944 14.4896 16.0006H23.9055Z" fill="#BC172F"/><path d="M30.6748 0H34.3249V4.194H30.6748V0ZM30.6748 8.32985H34.3249V27.2347H30.6748V8.32985Z" fill="#BC172F"/><path d="M40.4618 21.7721C40.9758 23.7303 42.4463 24.8745 44.8922 24.8745C47.505 24.8745 48.5216 23.7754 48.5216 22.1679C48.5216 20.5061 47.6644 19.7539 44.2301 18.9193C38.68 17.565 37.5752 15.8638 37.5752 13.2772C37.5752 10.58 39.5409 7.88281 44.5639 7.88281C49.587 7.88281 51.5939 10.7657 51.8228 13.386H48.3115C48.0621 12.2606 47.2255 10.6382 44.4064 10.6382C41.9342 10.6382 41.1915 11.8123 41.1915 12.9771C41.1915 14.2901 41.9305 14.9485 45.3179 15.7569C51.1625 17.1374 52.2579 19.0993 52.2579 21.9016C52.2579 25.1784 49.6789 27.6805 44.7665 27.6805C39.7022 27.6805 37.3126 25.1484 36.8418 21.7721H40.4618Z" fill="#BC172F"/><path d="M66.9609 10.4023H70.0764C70.1252 10.9088 70.0764 12.7507 70.0764 14.5119C71.0143 12.0736 73.1713 10.4943 76.1555 10.4023V13.5047C72.4548 13.6154 70.0764 15.5473 70.0764 20.1108V27.1765H66.9609C66.9609 27.1765 66.9759 11.3627 66.9609 10.4023Z" fill="#BC172F"/><path d="M65.9953 10.4023H62.8798C62.8311 10.9088 62.8798 12.7507 62.8798 14.5119C61.942 12.0736 59.7831 10.4943 56.8008 10.4023V13.5047C60.5015 13.6154 62.8798 15.5473 62.8798 20.1108V27.1765H65.9953C65.9953 27.1765 65.9822 11.3627 65.9953 10.4023Z" fill="#BC172F"/><path d="M80.4663 8.16406V11.5196C79.4834 11.5065 62.0078 11.5196 62.0078 11.5196V8.16406H80.4663Z" fill="#BC172F"/><path d="M70.9546 8.16406V11.5196C69.9717 11.5065 52.4961 11.5196 52.4961 11.5196V8.16406H70.9546Z" fill="#BC172F"/><path d="M85.4255 8.32812C88.2652 16.8906 89.9496 22.0655 90.4129 23.9525H90.4485C91.0225 21.8555 92.3242 17.547 95.2502 8.32812H98.919L92.2079 28.0414C90.3078 33.554 88.8692 34.9983 84.8684 34.9983C84.1619 34.9959 83.4562 34.9533 82.7545 34.8707V31.7646C83.2585 31.8272 83.7659 31.8591 84.2738 31.8603C86.5771 31.8603 87.4981 30.8812 88.5353 27.9326L81.4922 8.32812H85.4255Z" fill="#BC172F"/><path d="M99.9727 8.84548C99.9706 8.5024 100.055 8.16432 100.218 7.86263C100.375 7.56682 100.61 7.31964 100.897 7.148C101.18 6.97707 101.505 6.88672 101.835 6.88672C102.166 6.88672 102.49 6.97707 102.773 7.148C103.06 7.32017 103.295 7.56721 103.452 7.86263C103.615 8.16608 103.7 8.50499 103.7 8.84923C103.7 9.19347 103.615 9.53238 103.452 9.83583C103.294 10.1313 103.059 10.3783 102.771 10.5505C102.489 10.7223 102.164 10.8119 101.833 10.8093C101.502 10.812 101.177 10.7209 100.896 10.5467C100.609 10.374 100.374 10.1271 100.217 9.83208C100.054 9.52895 99.9698 9.18962 99.9727 8.84548ZM100.292 8.84548C100.29 9.12705 100.357 9.40474 100.489 9.65389C100.616 9.90041 100.807 10.1083 101.042 10.256C101.279 10.4051 101.553 10.4832 101.833 10.4811C102.112 10.4834 102.386 10.4053 102.621 10.256C102.86 10.1106 103.054 9.90317 103.184 9.65577C103.313 9.40561 103.381 9.12807 103.381 8.84642C103.381 8.56476 103.313 8.28722 103.184 8.03706C103.054 7.79063 102.859 7.58392 102.621 7.43873C102.385 7.29134 102.112 7.21395 101.833 7.21552C101.56 7.21437 101.292 7.28835 101.059 7.42935C100.821 7.57196 100.626 7.77691 100.496 8.02206C100.358 8.27455 100.287 8.55783 100.288 8.84548H100.292ZM101.456 9.04618V9.92962H101.061V7.69944H101.798C102.023 7.68726 102.245 7.75356 102.426 7.88701C102.5 7.94889 102.558 8.02694 102.597 8.11509C102.636 8.20325 102.654 8.29914 102.649 8.39532C102.65 8.48858 102.624 8.58008 102.574 8.65912C102.525 8.73817 102.454 8.80151 102.37 8.84173C102.465 8.89193 102.54 8.97342 102.582 9.07243C102.625 9.18882 102.645 9.31231 102.642 9.43632C102.642 9.58074 102.642 9.68203 102.642 9.74205C102.645 9.7931 102.657 9.84321 102.677 9.89023V9.93337H102.27C102.239 9.76528 102.227 9.59399 102.237 9.42319C102.245 9.32007 102.214 9.21759 102.15 9.13621C102.069 9.07065 101.965 9.03966 101.862 9.04993L101.456 9.04618ZM101.456 8.69355H101.792C101.908 8.6985 102.024 8.66985 102.124 8.61102C102.164 8.58954 102.197 8.55759 102.221 8.51859C102.244 8.4796 102.256 8.43503 102.255 8.38969C102.261 8.34213 102.255 8.29403 102.239 8.24892C102.223 8.20381 102.197 8.16283 102.164 8.12897C102.062 8.06718 101.944 8.03895 101.826 8.04832H101.451L101.456 8.69355Z" fill="#BC172F"/></svg>