<svg width="110" height="46" viewBox="0 0 110 46" fill="none" xmlns="http://www.w3.org/2000/svg"><path d="M0.0375134 13.4648C0.0375134 10.9702 0.016881 9.44712 0 8.3311H3.57503C3.62942 8.8394 3.68382 10.3943 3.68382 12.0824C4.64228 9.60093 6.84995 7.95596 9.99357 7.88281V11.4766C6.13156 11.5516 3.68382 13.3804 3.68382 18.2384V27.2416H0.0375134V13.4648Z" fill="white"/><path d="M14.379 18.4783C14.3977 22.0421 16.189 24.6887 19.2801 24.6887C22.1142 24.6887 23.0146 23.2763 23.5941 21.9389H27.2592C26.5296 24.3398 24.4945 27.6822 19.1676 27.6822C13.1729 27.6822 10.6914 22.8843 10.6914 18.0075C10.6914 12.3167 13.5687 7.87891 19.3795 7.87891C25.5542 7.87891 27.5931 12.7331 27.5931 16.9009C27.6034 17.4254 27.5852 17.9501 27.5387 18.4727L14.379 18.4783ZM23.9055 16.0006C23.8699 13.067 22.4369 10.6924 19.3382 10.6924C16.1721 10.6924 14.7972 12.8944 14.4896 16.0006H23.9055Z" fill="white"/><path d="M30.6748 0H34.3249V4.194H30.6748V0ZM30.6748 8.32985H34.3249V27.2347H30.6748V8.32985Z" fill="white"/><path d="M40.4618 21.7721C40.9758 23.7303 42.4463 24.8745 44.8922 24.8745C47.505 24.8745 48.5216 23.7754 48.5216 22.1679C48.5216 20.5061 47.6644 19.7539 44.2301 18.9193C38.68 17.565 37.5752 15.8638 37.5752 13.2772C37.5752 10.58 39.5409 7.88281 44.5639 7.88281C49.587 7.88281 51.5939 10.7657 51.8228 13.386H48.3115C48.0621 12.2606 47.2255 10.6382 44.4064 10.6382C41.9342 10.6382 41.1915 11.8123 41.1915 12.9771C41.1915 14.2901 41.9305 14.9485 45.3179 15.7569C51.1625 17.1374 52.2579 19.0993 52.2579 21.9016C52.2579 25.1784 49.6789 27.6805 44.7665 27.6805C39.7022 27.6805 37.3126 25.1484 36.8418 21.7721H40.4618Z" fill="white"/><path d="M66.9609 10.4023H70.0764C70.1252 10.9088 70.0764 12.7507 70.0764 14.5119C71.0143 12.0736 73.1713 10.4943 76.1555 10.4023V13.5047C72.4548 13.6154 70.0764 15.5473 70.0764 20.1108V27.1765H66.9609C66.9609 27.1765 66.9759 11.3627 66.9609 10.4023Z" fill="white"/><path d="M65.9953 10.4023H62.8798C62.8311 10.9088 62.8798 12.7507 62.8798 14.5119C61.942 12.0736 59.7831 10.4943 56.8008 10.4023V13.5047C60.5015 13.6154 62.8798 15.5473 62.8798 20.1108V27.1765H65.9953C65.9953 27.1765 65.9822 11.3627 65.9953 10.4023Z" fill="white"/><path d="M80.4663 8.16406V11.5196C79.4834 11.5065 62.0078 11.5196 62.0078 11.5196V8.16406H80.4663Z" fill="white"/><path d="M70.9546 8.16406V11.5196C69.9717 11.5065 52.4961 11.5196 52.4961 11.5196V8.16406H70.9546Z" fill="white"/><path d="M85.4255 8.32812C88.2652 16.8906 89.9496 22.0655 90.4129 23.9525H90.4485C91.0225 21.8555 92.3242 17.547 95.2502 8.32812H98.919L92.2079 28.0414C90.3078 33.554 88.8692 34.9983 84.8684 34.9983C84.1619 34.9959 83.4562 34.9533 82.7545 34.8707V31.7646C83.2585 31.8272 83.7659 31.8591 84.2738 31.8603C86.5771 31.8603 87.4981 30.8812 88.5353 27.9326L81.4922 8.32812H85.4255Z" fill="white"/><path d="M99.9727 8.84548C99.9706 8.5024 100.055 8.16432 100.218 7.86263C100.375 7.56682 100.61 7.31964 100.897 7.148C101.18 6.97707 101.505 6.88672 101.835 6.88672C102.166 6.88672 102.49 6.97707 102.773 7.148C103.06 7.32017 103.295 7.56721 103.452 7.86263C103.615 8.16608 103.7 8.50499 103.7 8.84923C103.7 9.19347 103.615 9.53238 103.452 9.83583C103.294 10.1313 103.059 10.3783 102.771 10.5505C102.489 10.7223 102.164 10.8119 101.833 10.8093C101.502 10.812 101.177 10.7209 100.896 10.5467C100.609 10.374 100.374 10.1271 100.217 9.83208C100.054 9.52895 99.9698 9.18962 99.9727 8.84548ZM100.292 8.84548C100.29 9.12705 100.357 9.40474 100.489 9.65389C100.616 9.90041 100.807 10.1083 101.042 10.256C101.279 10.4051 101.553 10.4832 101.833 10.4811C102.112 10.4834 102.386 10.4053 102.621 10.256C102.86 10.1106 103.054 9.90317 103.184 9.65577C103.313 9.40561 103.381 9.12807 103.381 8.84642C103.381 8.56476 103.313 8.28722 103.184 8.03706C103.054 7.79063 102.859 7.58392 102.621 7.43873C102.385 7.29134 102.112 7.21395 101.833 7.21552C101.56 7.21437 101.292 7.28835 101.059 7.42935C100.821 7.57196 100.626 7.77691 100.496 8.02206C100.358 8.27455 100.287 8.55783 100.288 8.84548H100.292ZM101.456 9.04618V9.92962H101.061V7.69944H101.798C102.023 7.68726 102.245 7.75356 102.426 7.88701C102.5 7.94889 102.558 8.02694 102.597 8.11509C102.636 8.20325 102.654 8.29914 102.649 8.39532C102.65 8.48858 102.624 8.58008 102.574 8.65912C102.525 8.73817 102.454 8.80151 102.37 8.84173C102.465 8.89193 102.54 8.97342 102.582 9.07243C102.625 9.18882 102.645 9.31231 102.642 9.43632C102.642 9.58074 102.642 9.68203 102.642 9.74205C102.645 9.7931 102.657 9.84321 102.677 9.89023V9.93337H102.27C102.239 9.76528 102.227 9.59399 102.237 9.42319C102.245 9.32007 102.214 9.21759 102.15 9.13621C102.069 9.07065 101.965 9.03966 101.862 9.04993L101.456 9.04618ZM101.456 8.69355H101.792C101.908 8.6985 102.024 8.66985 102.124 8.61102C102.164 8.58954 102.197 8.55759 102.221 8.51859C102.244 8.4796 102.256 8.43503 102.255 8.38969C102.261 8.34213 102.255 8.29403 102.239 8.24892C102.223 8.20381 102.197 8.16283 102.164 8.12897C102.062 8.06718 101.944 8.03895 101.826 8.04832H101.451L101.456 8.69355Z" fill="white"/><path d="M36.092 45.5V37.16H41.456V38.108H37.184V40.82H41.192V41.768H37.184V45.5H36.092ZM45.1209 39.272C46.8129 39.272 47.9169 40.544 47.9169 42.452C47.9169 44.204 46.9089 45.644 45.0489 45.644C43.3089 45.644 42.2529 44.3 42.2529 42.476C42.2529 40.676 43.2849 39.272 45.1209 39.272ZM45.0729 40.16C43.9329 40.16 43.3329 41.072 43.3329 42.464C43.3329 43.796 44.0049 44.768 45.0969 44.768C46.2129 44.768 46.8369 43.844 46.8369 42.464C46.8369 41.096 46.2129 40.16 45.0729 40.16ZM49.2825 45.5V41.072C49.2825 40.22 49.2825 39.74 49.2705 39.416H50.3025C50.3265 39.596 50.3385 40.064 50.3385 40.664C50.6505 39.836 51.3825 39.308 52.3905 39.272V40.328C51.1425 40.364 50.3385 41.012 50.3385 42.548V45.5H49.2825ZM56.5364 45.5V41.072C56.5364 40.22 56.5364 39.74 56.5244 39.416H57.5564C57.5804 39.596 57.5924 40.064 57.5924 40.664C57.9044 39.836 58.6364 39.308 59.6444 39.272V40.328C58.3964 40.364 57.5924 41.012 57.5924 42.548V45.5H56.5364ZM65.5814 42.656H61.2974C61.2974 43.892 61.9214 44.768 62.9534 44.768C63.9254 44.768 64.2374 44.276 64.4294 43.832H65.4854C65.2454 44.612 64.5974 45.644 62.9294 45.644C61.0094 45.644 60.2294 44.096 60.2294 42.524C60.2294 40.724 61.1414 39.272 62.9894 39.272C64.9574 39.272 65.6054 40.856 65.6054 42.152C65.6054 42.332 65.6054 42.488 65.5814 42.656ZM61.3334 41.912H64.5374C64.5254 40.916 64.0214 40.112 62.9774 40.112C61.9094 40.112 61.4414 40.856 61.3334 41.912ZM66.5084 43.76H67.5524C67.7204 44.432 68.2124 44.816 69.0404 44.816C69.9404 44.816 70.2884 44.432 70.2884 43.88C70.2884 43.316 70.0124 43.052 68.8484 42.764C67.1084 42.344 66.7484 41.816 66.7484 40.988C66.7484 40.124 67.3724 39.272 68.9444 39.272C70.5044 39.272 71.1524 40.184 71.2364 41.036H70.2164C70.1324 40.64 69.8324 40.088 68.8964 40.088C68.0444 40.088 67.7924 40.508 67.7924 40.904C67.7924 41.36 68.0444 41.576 69.1604 41.852C70.9964 42.284 71.3684 42.896 71.3684 43.808C71.3684 44.876 70.5284 45.644 69.0044 45.644C67.4324 45.644 66.6644 44.852 66.5084 43.76ZM71.8814 40.28V39.416H72.9374V37.628H73.9934V39.416H75.3254V40.28H73.9934V43.844C73.9934 44.432 74.1374 44.732 74.6774 44.732C74.8334 44.732 75.0494 44.732 75.2174 44.684V45.476C74.9534 45.572 74.5934 45.584 74.3054 45.584C73.3574 45.584 72.9374 45.104 72.9374 44.084V40.28H71.8814ZM81.2251 39.416V43.736C81.2251 44.324 81.2371 45.152 81.2371 45.5H80.2171C80.1931 45.344 80.1811 44.972 80.1811 44.588C79.8811 45.272 79.2931 45.644 78.3331 45.644C77.3131 45.644 76.3291 45.14 76.3291 43.424V39.416H77.3731V43.196C77.3731 44 77.6131 44.732 78.6331 44.732C79.7491 44.732 80.1811 44.12 80.1811 42.596V39.416H81.2251ZM87.5568 41.276V44.18C87.5568 44.732 87.6048 45.332 87.6408 45.5H86.6328C86.5848 45.368 86.5488 45.08 86.5368 44.708C86.3208 45.116 85.8408 45.644 84.6648 45.644C83.2248 45.644 82.6128 44.72 82.6128 43.796C82.6128 42.428 83.6808 41.816 85.4928 41.816C85.9128 41.816 86.2968 41.816 86.5248 41.816V41.288C86.5248 40.76 86.3568 40.1 85.2168 40.1C84.1968 40.1 84.0288 40.604 83.9208 41.084H82.9008C82.9848 40.244 83.5008 39.272 85.2528 39.272C86.7408 39.284 87.5568 39.884 87.5568 41.276ZM86.5368 42.74V42.536C86.3328 42.536 85.8768 42.536 85.5528 42.536C84.3288 42.536 83.6808 42.872 83.6808 43.736C83.6808 44.36 84.1248 44.828 84.8688 44.828C86.3328 44.828 86.5368 43.844 86.5368 42.74ZM89.3724 45.5V41.072C89.3724 40.22 89.3724 39.74 89.3604 39.416H90.3924C90.4164 39.596 90.4284 40.064 90.4284 40.664C90.7404 39.836 91.4724 39.308 92.4804 39.272V40.328C91.2324 40.364 90.4284 41.012 90.4284 42.548V45.5H89.3724ZM97.9279 41.276V44.18C97.9279 44.732 97.9759 45.332 98.0119 45.5H97.0039C96.9559 45.368 96.9199 45.08 96.9079 44.708C96.6919 45.116 96.2119 45.644 95.0359 45.644C93.5959 45.644 92.9839 44.72 92.9839 43.796C92.9839 42.428 94.0519 41.816 95.8639 41.816C96.2839 41.816 96.6679 41.816 96.8959 41.816V41.288C96.8959 40.76 96.7279 40.1 95.5879 40.1C94.5679 40.1 94.3999 40.604 94.2919 41.084H93.2719C93.3559 40.244 93.8719 39.272 95.6239 39.272C97.1119 39.284 97.9279 39.884 97.9279 41.276ZM96.9079 42.74V42.536C96.7039 42.536 96.2479 42.536 95.9239 42.536C94.6999 42.536 94.0519 42.872 94.0519 43.736C94.0519 44.36 94.4959 44.828 95.2399 44.828C96.7039 44.828 96.9079 43.844 96.9079 42.74ZM99.7555 45.5V40.952C99.7555 40.424 99.7555 39.896 99.7435 39.416H100.763C100.787 39.596 100.811 40.244 100.799 40.424C101.051 39.896 101.543 39.272 102.719 39.272C103.859 39.272 104.747 39.98 104.747 41.588V45.5H103.703V41.732C103.703 40.808 103.343 40.184 102.407 40.184C101.267 40.184 100.799 41.06 100.799 42.284V45.5H99.7555ZM105.69 40.28V39.416H106.746V37.628H107.802V39.416H109.134V40.28H107.802V43.844C107.802 44.432 107.946 44.732 108.486 44.732C108.642 44.732 108.858 44.732 109.026 44.684V45.476C108.762 45.572 108.402 45.584 108.114 45.584C107.166 45.584 106.746 45.104 106.746 44.084V40.28H105.69Z" fill="white"/></svg>