<svg width="46" height="30" viewBox="0 0 46 30" fill="none" xmlns="http://www.w3.org/2000/svg">
<path d="M43.7799 2.04262V1.27129H44.1708C44.2022 1.27129 44.2363 1.28034 44.2733 1.29846C44.3102 1.31588 44.3415 1.34305 44.3673 1.37998C44.3938 1.41622 44.407 1.4622 44.407 1.51795C44.407 1.57439 44.3934 1.62246 44.3663 1.66218C44.3391 1.7012 44.306 1.73081 44.267 1.75102C44.2287 1.77123 44.1924 1.78133 44.1583 1.78133H43.8761V1.65591H44.106C44.129 1.65591 44.1538 1.64441 44.1802 1.62142C44.2074 1.59842 44.221 1.56393 44.221 1.51795C44.221 1.47057 44.2074 1.43851 44.1802 1.42179C44.1538 1.40507 44.1304 1.39671 44.1102 1.39671H43.9492V2.04262H43.7799ZM44.2461 1.6789L44.4384 2.04262H44.2523L44.0642 1.6789H44.2461ZM44.0726 2.5025C43.9569 2.5025 43.8486 2.4809 43.7475 2.4377C43.6465 2.3945 43.5577 2.33457 43.481 2.25793C43.4044 2.18128 43.3444 2.09244 43.3012 1.99141C43.258 1.89038 43.2364 1.78203 43.2364 1.66636C43.2364 1.5507 43.258 1.44235 43.3012 1.34131C43.3444 1.24028 43.4044 1.15144 43.481 1.07479C43.5577 0.998148 43.6465 0.938224 43.7475 0.895024C43.8486 0.851823 43.9569 0.830223 44.0726 0.830223C44.1882 0.830223 44.2966 0.851823 44.3976 0.895024C44.4987 0.938224 44.5875 0.998148 44.6641 1.07479C44.7408 1.15144 44.8007 1.24028 44.8439 1.34131C44.8871 1.44235 44.9087 1.5507 44.9087 1.66636C44.9087 1.78203 44.8871 1.89038 44.8439 1.99141C44.8007 2.09244 44.7408 2.18128 44.6641 2.25793C44.5875 2.33457 44.4987 2.3945 44.3976 2.4377C44.2966 2.4809 44.1882 2.5025 44.0726 2.5025ZM44.0726 2.30183C44.1896 2.30183 44.2962 2.27326 44.3924 2.21612C44.4886 2.15898 44.5652 2.08234 44.6223 1.98618C44.6795 1.89003 44.708 1.78342 44.708 1.66636C44.708 1.5493 44.6795 1.44269 44.6223 1.34654C44.5652 1.25038 44.4886 1.17374 44.3924 1.1166C44.2962 1.05946 44.1896 1.0309 44.0726 1.0309C43.9555 1.0309 43.8489 1.05946 43.7528 1.1166C43.6566 1.17374 43.58 1.25038 43.5228 1.34654C43.4657 1.44269 43.4371 1.5493 43.4371 1.66636C43.4371 1.78342 43.4657 1.89003 43.5228 1.98618C43.58 2.08234 43.6566 2.15898 43.7528 2.21612C43.8489 2.27326 43.9555 2.30183 44.0726 2.30183Z" fill="white"/>
<path d="M21.2266 5.37695H25.7981C25.8687 6.12055 25.7981 8.8241 25.7981 11.4078C27.1836 7.82443 30.3402 5.51156 34.718 5.37695V9.93539C29.288 10.0995 25.7981 12.9328 25.7981 19.6284V29.9994H21.2266C21.2266 29.9994 21.2446 6.78536 21.2266 5.37695Z" fill="white"/>
<path d="M19.8056 5.37695H15.234C15.1635 6.12055 15.234 8.8241 15.234 11.4078C13.8486 7.82443 10.6904 5.5132 6.3125 5.37695V9.93539C11.7442 10.0995 15.234 12.9328 15.234 19.6284V29.9994H19.8056C19.8056 29.9994 19.7859 6.78536 19.8056 5.37695Z" fill="white"/>
<path d="M41.0378 2.09375V7.01824C39.5949 6.99854 13.9531 7.01824 13.9531 7.01824V2.09375H41.0378Z" fill="white"/>
<path d="M27.0847 2.09375V7.01824C25.6418 6.99854 0 7.01824 0 7.01824V2.09375H27.0847Z" fill="white"/>
</svg>
