<svg width="189" height="189" viewBox="0 0 189 189" fill="none" xmlns="http://www.w3.org/2000/svg">
<circle cx="94.5" cy="94.5" r="94.5" fill="white" fill-opacity="0.05"/>
<circle cx="94.4079" cy="94.4098" r="82.111" fill="white" fill-opacity="0.1"/>
<g clip-path="url(#clip0_1539_9658)">
<path d="M108.721 34.4064H108.439C108.163 34.3905 107.886 34.3905 107.61 34.4064C106.549 34.4683 105.506 34.713 104.528 35.1299C102.975 35.7818 101.623 36.8355 100.611 38.1828C99.9877 39.0227 99.5254 39.9707 99.2473 40.9789C98.9318 42.1699 98.8544 43.4114 99.0195 44.6323C99.1846 45.8533 99.589 47.0296 100.21 48.094C100.552 48.6858 100.965 49.2337 101.439 49.7254C101.92 50.246 102.482 50.6857 103.103 51.0276C103.741 51.3857 104.463 51.5668 105.194 51.5521C105.946 51.5437 106.668 51.2532 107.216 50.7382C107.749 50.176 108.038 49.4256 108.019 48.6511C108.015 47.8558 107.762 47.0818 107.296 46.4373C106.355 45.117 104.836 44.2272 103.223 43.7497C101.545 43.2805 99.7732 43.2556 98.0826 43.6774C97.2203 43.9017 96.3892 44.2322 95.6084 44.6613C94.8207 45.107 94.1049 45.6692 93.4851 46.3288C93.3368 46.5024 93.1668 46.658 93.0365 46.8425L92.6206 47.3814C92.3699 47.7663 92.1475 48.1689 91.955 48.586C91.5669 49.4326 91.3014 50.3303 91.1664 51.2518C90.9037 53.0926 91.154 54.9701 91.8899 56.6777C92.5922 58.3479 93.8186 59.7444 95.3841 60.6566C96.1405 61.0903 96.985 61.3475 97.8547 61.409C98.708 61.4532 99.556 61.2497 100.296 60.823C101.029 60.4153 101.609 59.7805 101.949 59.0144C102.256 58.2579 102.269 57.4143 101.986 56.6487C101.702 55.9036 101.234 55.2426 100.625 54.728C100.038 54.2166 99.3597 53.8214 98.6252 53.5633C97.1955 53.1159 95.6672 53.0895 94.223 53.4873C92.8714 53.8549 91.6298 54.5465 90.6058 55.5021C89.6747 56.3951 88.9661 57.494 88.5367 58.7106C87.7824 60.8213 87.8158 63.1335 88.6308 65.2216C89.2666 66.7816 90.293 68.1518 91.6114 69.2005C92.4371 69.8692 93.3606 70.4072 94.3496 70.7957C94.6896 70.9259 94.9501 71.0164 95.1309 71.067L95.3986 71.1574L95.1237 71.0851C94.9428 71.0417 94.6788 70.9549 94.3351 70.8319C93.3357 70.4538 92.401 69.923 91.5643 69.2584C90.2288 68.2145 89.1849 66.8442 88.5331 65.2794C87.7002 63.1715 87.6565 60.8337 88.4101 58.6961C88.8454 57.4627 89.5625 56.348 90.5045 55.4406C91.5416 54.4646 92.8022 53.7579 94.176 53.3824C95.651 52.9696 97.2141 52.9935 98.6758 53.4511C99.4308 53.7144 100.129 54.1182 100.734 54.6412C101.365 55.1762 101.85 55.8618 102.145 56.6343C102.444 57.4405 102.431 58.3294 102.109 59.1265C101.754 59.9268 101.148 60.5896 100.383 61.0147C99.6159 61.4589 98.7364 61.6713 97.8511 61.626C96.9489 61.5511 96.0762 61.2688 95.3009 60.8013C93.7017 59.876 92.4473 58.4551 91.7271 56.7536C90.9716 55.0159 90.7136 53.1024 90.982 51.2265C91.1166 50.2873 91.3859 49.3724 91.7814 48.51C91.9792 48.0829 92.2076 47.6706 92.465 47.2765L92.881 46.7122C93.0244 46.5291 93.1778 46.354 93.3404 46.1877C93.9732 45.5139 94.705 44.9406 95.5107 44.4876C96.3083 44.0464 97.1593 43.7097 98.0428 43.4857C99.7633 43.0561 101.566 43.0823 103.273 43.5616C104.923 44.0536 106.467 44.9543 107.44 46.3216C107.929 46.9965 108.194 47.8071 108.2 48.6402C108.217 49.4579 107.908 50.2488 107.343 50.8395C106.764 51.3838 106.003 51.691 105.209 51.7004C104.449 51.7142 103.7 51.5243 103.038 51.1506C102.404 50.7993 101.83 50.3487 101.338 49.8158C100.855 49.315 100.436 48.756 100.09 48.1519C99.4635 47.0679 99.0568 45.8709 98.8936 44.6295C98.7303 43.388 98.8137 42.1266 99.1388 40.9174C99.4305 39.9007 99.9076 38.9466 100.546 38.1032C101.575 36.7469 102.949 35.6914 104.525 35.0467C105.505 34.6406 106.547 34.4081 107.607 34.3594C107.884 34.3411 108.162 34.3411 108.439 34.3594L108.721 34.4064Z" fill="#263238"/>
<path d="M120.803 70.5996H70.0859V109.716H120.803V70.5996Z" fill="white"/>
<path d="M70.0859 70.5996L79.4509 79.3352H129.311L120.803 70.5996H70.0859Z" fill="white"/>
<path d="M70.0859 70.5999L120.803 70.5059H120.839L120.868 70.5348L129.289 79.18L129.376 79.2704L129.531 79.4296H129.311L79.4509 79.3934H79.4292L70.0859 70.5999L79.4907 79.2812H79.4509L129.311 79.2451L129.242 79.4042L129.155 79.3138L120.734 70.665L120.803 70.694L70.0859 70.5999Z" fill="#263238"/>
<path d="M85.3193 88.6348C85.0436 88.6447 84.7828 88.7625 84.5931 88.9628C84.4034 89.1631 84.2999 89.4299 84.3049 89.7057C84.3098 89.9815 84.4229 90.2444 84.6197 90.4377C84.8166 90.631 85.0814 90.7393 85.3573 90.7393C85.6332 90.7393 85.898 90.631 86.0949 90.4377C86.2917 90.2444 86.4048 89.9815 86.4097 89.7057C86.4147 89.4299 86.3112 89.1631 86.1215 88.9628C85.9318 88.7625 85.671 88.6447 85.3953 88.6348" fill="#263238"/>
<path d="M97.2923 88.6348C97.0175 88.6447 96.7577 88.7621 96.5686 88.9617C96.3796 89.1613 96.2764 89.4272 96.2814 89.7021C96.2864 89.9769 96.3991 90.2389 96.5952 90.4315C96.7914 90.6241 97.0553 90.7321 97.3302 90.7321C97.6052 90.7321 97.8691 90.6241 98.0653 90.4315C98.2614 90.2389 98.3741 89.9769 98.3791 89.7021C98.384 89.4272 98.2809 89.1613 98.0919 88.9617C97.9028 88.7621 97.643 88.6447 97.3682 88.6348" fill="#263238"/>
<path d="M97.3723 98.0019C97.1664 97.2006 96.8264 96.4399 96.3668 95.752C95.8582 95.0176 95.2076 94.3928 94.4532 93.9144C93.5393 93.307 92.4729 92.9689 91.3759 92.9388C90.2789 92.9088 89.1956 93.1879 88.2497 93.7444C87.4695 94.1854 86.7866 94.7797 86.2421 95.4915C85.7468 96.1459 85.3663 96.8798 85.1172 97.6619C85.1176 97.604 85.1274 97.5466 85.1461 97.4919C85.1787 97.3288 85.2222 97.168 85.2763 97.0108C85.4764 96.4294 85.7656 95.8827 86.1336 95.3903C86.6799 94.6529 87.3734 94.037 88.1701 93.5816C89.1394 93.0022 90.2538 92.7111 91.3827 92.7425C92.5116 92.7739 93.6081 93.1265 94.5437 93.7589C95.3155 94.2528 95.9748 94.9035 96.4789 95.6688C96.8204 96.1797 97.0792 96.7412 97.2457 97.3327C97.2916 97.4917 97.3266 97.6537 97.3506 97.8174C97.3687 97.8771 97.3761 97.9396 97.3723 98.0019Z" fill="#263238"/>
<path opacity="0.5" d="M70.2031 71.0312L79.1738 82.4002H120.808V79.3364H79.456L70.2031 71.0312Z" fill="black"/>
<path d="M110.805 109.625C110.751 109.625 110.711 102.821 110.711 94.4326C110.711 86.0442 110.751 79.2402 110.805 79.2402C110.859 79.2402 110.899 86.0442 110.899 94.4326C110.899 102.821 110.856 109.625 110.805 109.625Z" fill="#263238"/>
<path d="M118.76 100.76H114.289V105.813H118.76V100.76Z" fill="#F5F5F5"/>
<path d="M70.0859 70.5996L59.6719 79.3352H70.0859V70.5996Z" fill="white"/>
<g opacity="0.4">
<path d="M70.0859 70.6016L59.6719 79.3372H70.0859V70.6016Z" fill="black"/>
</g>
<path d="M122.305 109.717H63.9922V154.693H122.305V109.717Z" fill="white"/>
<path opacity="0.3" d="M122.305 109.717H63.9922V154.693H122.305V109.717Z" fill="black"/>
<path d="M107.688 154.375C107.637 154.375 107.594 144.348 107.594 131.984C107.594 119.621 107.637 109.594 107.688 109.594C107.738 109.594 107.782 119.617 107.782 131.984C107.782 144.352 107.742 154.375 107.688 154.375Z" fill="#263238"/>
<path d="M117.354 144.457H112.883V149.51H117.354V144.457Z" fill="#F5F5F5"/>
<path d="M88.4044 109.832H81.7812V119.429H88.4044V109.832Z" fill="#263238"/>
<path d="M88.4044 144.963H81.7812V154.559H88.4044V144.963Z" fill="#263238"/>
<path d="M121.795 109.717C121.746 109.722 121.696 109.722 121.647 109.717H121.209L119.524 109.735L113.331 109.764L92.8938 109.793L72.4565 109.764L66.2602 109.735L64.5782 109.717H64.1405C64.0912 109.722 64.0415 109.722 63.9922 109.717C64.0415 109.712 64.0912 109.712 64.1405 109.717H64.5782L66.2602 109.699L72.4565 109.666L92.8938 109.641L113.331 109.666L119.524 109.699L121.209 109.717H121.647C121.696 109.712 121.746 109.712 121.795 109.717Z" fill="#263238"/>
</g>
<defs>
<clipPath id="clip0_1539_9658">
<rect width="69.8595" height="120.334" fill="white" transform="translate(59.6797 34.3633)"/>
</clipPath>
</defs>
</svg>
